<?xml version="1.0" encoding="iso-8859-1"?>
<!-- Uploaded to: SVG Repo, www.svgrepo.com, Generator: SVG Repo Mixer Tools -->
<svg height="800px" width="800px" version="1.1" id="Layer_1" xmlns="http://www.w3.org/2000/svg" xmlns:xlink="http://www.w3.org/1999/xlink" 
	 viewBox="0 0 495 495" xml:space="preserve">
<g>
	<polygon style="fill:#891C00;" points="247.5,0 247.5,40 455,40 455,455 247.5,455 247.5,495 495,495 495,0 	"/>
	<polygon style="fill:#CD2A00;" points="40,455 40,40 247.5,40 247.5,0 0,0 0,495 247.5,495 247.5,455 	"/>
	<path style="fill:#CD2A00;" d="M92.583,393.755l12.569,7.496c2.582,2.457,5.04,2.457,10.079,2.457
		c20.192,0,45.392-25.105,75.663-77.993c2.489-2.583,2.489-2.583,5.072-2.583c25.074-10.112,57.928-15.151,100.767-20.192
		c25.232,12.663,55.378,17.734,75.537,17.734c10.112,0,17.735-2.583,22.775-5.071c4.913-5.04,7.496-12.663,9.954-15.119
		c0-5.041,0-10.081-2.458-15.152c-7.496-12.663-27.688-17.577-57.96-17.577c-10.08,0-20.159,2.458-32.728,2.458
		c-10.079-5.041-15.12-10.08-22.742-15.12c-15.152-15.151-30.145-37.8-40.256-65.488v-2.584c10.111-32.729,17.607-73.08,0-90.688
		c-5.041-2.583-10.08-5.04-15.12-5.04h-5.041c-10.11,0-17.734,10.111-20.19,20.192c-10.08,35.185-5.04,52.92,5.039,83.191
		c-7.496,22.616-15.119,47.848-27.688,73.079c-10.08,17.577-17.702,32.729-25.231,45.266c-10.079,5.071-17.576,10.112-22.617,12.695
		C107.734,343.291,92.583,365.939,90,378.603c0,5.072,0,7.528,2.583,12.569V393.755z M332.046,285.332h4.914
		c35.31,0,45.422,7.529,48.005,10.111c0,2.458,2.457,2.458,2.457,2.458v2.583h-7.529c-12.662,0-30.271-5.041-47.848-12.664V285.332z
		 M228.694,103.861c2.458,0,2.458-2.458,2.458-2.458l2.583,2.458v2.582c2.456,2.458,2.456,12.538,0,25.231v5.041
		c0,7.496-2.583,12.537-5.041,22.617C223.623,136.715,223.623,118.981,228.694,103.861z M206.046,277.708
		c9.954-22.617,20.065-42.809,25.105-60.417c10.08,22.649,25.231,42.84,37.894,57.96c2.458,2.457,4.914,5.04,9.954,7.497
		c-20.034,2.583-50.306,10.112-83.033,22.774h-5.072C195.966,295.442,201.006,287.819,206.046,277.708z M140.464,340.708
		c2.583-2.456,7.497-5.04,12.536-7.497c-14.993,30.271-30.145,45.392-45.266,47.881
		C110.192,373.563,122.854,355.859,140.464,340.708z"/>
</g>
</svg>